<svg width="50" height="50" viewBox="0 0 50 50" fill="none" xmlns="http://www.w3.org/2000/svg">
<path d="M40.28 25.7002C38.47 30.8902 33.39 36.6302 29.28 40.7002C30.6108 42.2259 32.0405 43.6623 33.56 45.0002C33.8735 45.2806 34.2794 45.4356 34.7 45.4356C35.1206 45.4356 35.5265 45.2806 35.84 45.0002C38.33 42.7902 44.06 37.2802 44.06 33.2302C44.0632 31.7668 43.7228 30.3231 43.0662 29.0153C42.4097 27.7074 41.4554 26.572 40.28 25.7002Z" fill="#D15187"/>
<path d="M40.28 25.6998C38.8895 24.6627 37.2378 24.0328 35.5098 23.8807C33.7817 23.7286 32.0455 24.0603 30.4951 24.8386C28.9448 25.6168 27.6416 26.8111 26.7311 28.2877C25.8207 29.7643 25.3391 31.4651 25.34 33.1998C25.34 35.5098 27.21 38.2998 29.28 40.6798C33.39 36.6298 38.47 30.8898 40.28 25.6998Z" fill="#A445BB"/>
<path d="M23.46 4.5801C21.1589 4.57879 18.8801 5.03106 16.7538 5.91106C14.6276 6.79105 12.6957 8.08152 11.0686 9.70866C9.44142 11.3358 8.15096 13.2677 7.27096 15.3939C6.39096 17.5202 5.93869 19.799 5.94001 22.1001C5.94001 30.2801 18.47 41.6801 22.33 45.0001C22.6425 45.2703 23.0419 45.419 23.455 45.419C23.8681 45.419 24.2675 45.2703 24.58 45.0001C25.64 44.0901 27.35 42.5701 29.28 40.6801C27.21 38.3001 25.34 35.5101 25.34 33.2001C25.3534 30.9092 26.2075 28.703 27.74 27.0001C26.5871 28.1017 25.0546 28.7175 23.46 28.7201C22.0019 28.7402 20.5812 28.2586 19.4359 27.3561C18.2905 26.4535 17.4901 25.1848 17.1687 23.7624C16.8473 22.34 17.0245 20.8504 17.6705 19.5431C18.3166 18.2358 19.3922 17.1901 20.7173 16.5814C22.0424 15.9726 23.5364 15.8377 24.9492 16.1993C26.3619 16.5608 27.6074 17.3968 28.4772 18.5673C29.347 19.7377 29.7881 21.1715 29.7267 22.6284C29.6653 24.0854 29.1051 25.477 28.14 26.5701C29.7284 25.0002 31.8277 24.0528 34.0559 23.9005C36.284 23.7481 38.4927 24.401 40.28 25.7401C40.7263 24.5768 40.9698 23.3457 41 22.1001C41.0013 19.7973 40.5484 17.5168 39.6671 15.3893C38.7859 13.2618 37.4936 11.329 35.8644 9.70158C34.2351 8.07417 32.3008 6.78413 30.1723 5.90531C28.0438 5.02649 25.7628 4.57616 23.46 4.5801Z" fill="#6F2CFF"/>
</svg>
