<svg width="50" height="50" viewBox="0 0 50 50" fill="none" xmlns="http://www.w3.org/2000/svg">
<path d="M25 46.4201C36.83 46.4201 46.42 36.83 46.42 25.0001C46.42 13.1701 36.83 3.58008 25 3.58008C13.1701 3.58008 3.58002 13.1701 3.58002 25.0001C3.58002 36.83 13.1701 46.4201 25 46.4201Z" fill="#6F2CFF"/>
<path d="M20.54 23.5902C22.2245 23.5902 23.59 22.2247 23.59 20.5402C23.59 18.8558 22.2245 17.4902 20.54 17.4902C18.8555 17.4902 17.49 18.8558 17.49 20.5402C17.49 22.2247 18.8555 23.5902 20.54 23.5902Z" fill="#D15187"/>
<path d="M29.46 23.5902C31.1444 23.5902 32.51 22.2247 32.51 20.5402C32.51 18.8558 31.1444 17.4902 29.46 17.4902C27.7755 17.4902 26.41 18.8558 26.41 20.5402C26.41 22.2247 27.7755 23.5902 29.46 23.5902Z" fill="#D15187"/>
<path d="M20.54 32.5102C22.2245 32.5102 23.59 31.1446 23.59 29.4602C23.59 27.7757 22.2245 26.4102 20.54 26.4102C18.8555 26.4102 17.49 27.7757 17.49 29.4602C17.49 31.1446 18.8555 32.5102 20.54 32.5102Z" fill="#D15187"/>
<path d="M29.46 32.5102C31.1444 32.5102 32.51 31.1446 32.51 29.4602C32.51 27.7757 31.1444 26.4102 29.46 26.4102C27.7755 26.4102 26.41 27.7757 26.41 29.4602C26.41 31.1446 27.7755 32.5102 29.46 32.5102Z" fill="#D15187"/>
</svg>
