<svg width="50" height="50" viewBox="0 0 50 50" fill="none" xmlns="http://www.w3.org/2000/svg">
<path d="M25 42.78C25.05 40.26 25.59 31.71 30.66 24.78C30.91 24.43 31.17 24.1 31.43 23.78C30.93 14.1 25 6.47998 25 6.47998C25 6.47998 19.07 14.1 18.57 23.74C18.83 24.06 19.09 24.39 19.34 24.74C24.41 31.71 25 40.26 25 42.78Z" fill="#6F2CFF"/>
<path d="M18.57 23.7398C12.51 16.2298 3.23001 13.5498 3.23001 13.5498C3.23001 13.5498 2.87001 24.0598 8.88001 32.3398C14.89 40.6198 25 43.5198 25 43.5198C25 43.5198 18.54 35.2298 18.54 24.9998C18.54 24.5798 18.55 24.1598 18.57 23.7398Z" fill="#D15187"/>
<path d="M25 42.7798C24.95 40.2598 24.41 31.7098 19.34 24.7798C19.09 24.4298 18.83 24.0998 18.57 23.7798C18.57 24.1998 18.57 24.6198 18.57 25.0398C18.54 35.2298 25 43.5198 25 43.5198C25 43.5198 25 43.2598 25 42.7798Z" fill="#A445BB"/>
<path d="M46.77 13.5498C46.77 13.5498 37.49 16.2298 31.43 23.7398C31.43 24.1598 31.43 24.5798 31.43 24.9998C31.46 35.2298 25 43.5198 25 43.5198C25 43.5198 35.1 40.6098 41.12 32.3398C47.14 24.0698 46.77 13.5498 46.77 13.5498Z" fill="#D15187"/>
<path d="M31.43 23.7402C31.17 24.0602 30.91 24.3902 30.66 24.7402C25.59 31.7402 25.05 40.2602 25 42.7402C25 43.2202 25 43.4802 25 43.4802C25 43.4802 31.46 35.2302 31.46 25.0002C31.46 24.5802 31.45 24.1602 31.43 23.7402Z" fill="#A445BB"/>
</svg>
