<svg width="50" height="50" viewBox="0 0 50 50" fill="none" xmlns="http://www.w3.org/2000/svg">
<path d="M40.91 30.23C41.6844 30.23 42.4271 29.9223 42.9748 29.3747C43.5224 28.8271 43.83 28.0844 43.83 27.31C43.8282 27.0284 43.7844 26.7486 43.7 26.48L38.13 28.15C38.3069 28.7502 38.6733 29.2771 39.1743 29.652C39.6754 30.0269 40.2842 30.2296 40.91 30.23Z" fill="#D15187"/>
<path d="M40.91 24.3901C40.1373 24.3928 39.3972 24.7016 38.8517 25.2489C38.3063 25.7962 38 26.5374 38 27.3101C38.0065 27.5954 38.0536 27.8782 38.14 28.1501L43.71 26.4801C43.531 25.8764 43.1617 25.3468 42.6571 24.9701C42.1525 24.5935 41.5397 24.39 40.91 24.3901Z" fill="#A445BB"/>
<path d="M6.16998 27.31C6.16927 28.0096 6.42065 28.6861 6.87807 29.2155C7.33549 29.7449 7.96833 30.0918 8.66067 30.1926C9.353 30.2934 10.0585 30.1414 10.6479 29.7644C11.2373 29.3875 11.6711 28.8108 11.87 28.14L6.29998 26.48C6.2156 26.7486 6.17178 27.0284 6.16998 27.31Z" fill="#D15187"/>
<path d="M9.08999 24.3901C8.46203 24.3922 7.85147 24.5966 7.34889 24.9731C6.8463 25.3496 6.47848 25.8781 6.29999 26.4801L11.87 28.1401C11.9578 27.872 12.005 27.5922 12.01 27.3101C12.01 26.9267 11.9345 26.547 11.7877 26.1927C11.641 25.8384 11.4259 25.5165 11.1547 25.2454C10.8836 24.9742 10.5617 24.7592 10.2074 24.6124C9.85315 24.4657 9.47345 24.3901 9.08999 24.3901Z" fill="#A445BB"/>
<path d="M25 35.2698C29.8822 35.2698 33.84 31.312 33.84 26.4298C33.84 21.5476 29.8822 17.5898 25 17.5898C20.1178 17.5898 16.16 21.5476 16.16 26.4298C16.16 31.312 20.1178 35.2698 25 35.2698Z" fill="#A445BB"/>
<path d="M48.88 22.8898H33.1C32.472 21.4509 31.4722 20.2052 30.2033 19.2807C28.9344 18.3563 27.4421 17.7864 25.88 17.6298V11.6298C25.8813 11.516 25.8601 11.4031 25.8174 11.2976C25.7748 11.1921 25.7117 11.0961 25.6317 11.0152C25.5517 10.9343 25.4564 10.87 25.3514 10.8262C25.2464 10.7823 25.1338 10.7598 25.02 10.7598C24.9062 10.7598 24.7936 10.7823 24.6886 10.8262C24.5836 10.87 24.4883 10.9343 24.4083 11.0152C24.3283 11.0961 24.2652 11.1921 24.2226 11.2976C24.1799 11.4031 24.1587 11.516 24.16 11.6298V17.6298C22.5979 17.7864 21.1056 18.3563 19.8367 19.2807C18.5678 20.2052 17.568 21.4509 16.94 22.8898H1.12C0.889262 22.8898 0.667974 22.9814 0.504817 23.1446C0.34166 23.3077 0.25 23.529 0.25 23.7598V23.9998C0.250152 24.1876 0.310416 24.3705 0.421975 24.5216C0.533533 24.6728 0.690531 24.7843 0.87 24.8398L6.3 26.4798C6.49202 25.8005 6.92438 25.2142 7.51655 24.8301C8.10872 24.4459 8.82033 24.2901 9.51885 24.3917C10.2174 24.4932 10.8552 24.8452 11.3135 25.382C11.7718 25.9188 12.0193 26.604 12.01 27.3098C12.005 27.5919 11.9578 27.8716 11.87 28.1398L16.76 29.6098V29.3998C18.04 32.2098 21.24 33.4998 24.99 33.4998C28.74 33.4998 31.99 32.1998 33.23 29.3798V29.6098L38.11 28.1498C38.0236 27.8778 37.9765 27.595 37.97 27.3098C37.9607 26.604 38.2082 25.9188 38.6665 25.382C39.1248 24.8452 39.7626 24.4932 40.4612 24.3917C41.1597 24.2901 41.8713 24.4459 42.4635 24.8301C43.0556 25.2142 43.488 25.8005 43.68 26.4798L49.11 24.8498C49.2895 24.7943 49.4465 24.6828 49.558 24.5316C49.6696 24.3805 49.7298 24.1976 49.73 24.0098V23.7598C49.7301 23.5325 49.6412 23.3141 49.4823 23.1515C49.3234 22.989 49.1073 22.895 48.88 22.8898Z" fill="#6F2CFF"/>
<path d="M30.3 22.0098V22.8898L25 24.6598L19.7 22.8898V22.0098H30.3Z" fill="white"/>
</svg>
