<svg width="50" height="50" viewBox="0 0 50 50" fill="none" xmlns="http://www.w3.org/2000/svg">
<path d="M46.57 9.04991L26.05 2.67991C25.7834 2.59643 25.503 2.56644 25.2248 2.59168C24.9466 2.61692 24.6761 2.69688 24.429 2.82698C24.1818 2.95708 23.9627 3.13474 23.7844 3.34976C23.6061 3.56478 23.4721 3.81292 23.39 4.07991L18.54 19.6599L24.97 18.6599C25.5283 18.5737 26.0979 18.7129 26.5536 19.0467C27.0093 19.3805 27.3138 19.8816 27.4 20.4399L29 30.5399L39 33.6399C39.2672 33.7235 39.5483 33.7537 39.8272 33.7285C40.1061 33.7034 40.3773 33.6236 40.6253 33.4935C40.8733 33.3635 41.0932 33.1859 41.2724 32.9707C41.4517 32.7556 41.5868 32.5073 41.67 32.2399L48 11.7199C48.0844 11.4508 48.1143 11.1675 48.0878 10.8867C48.0614 10.6058 47.9792 10.3331 47.846 10.0844C47.7128 9.83578 47.5314 9.6162 47.3123 9.43856C47.0932 9.26092 46.8408 9.12879 46.57 9.04991Z" fill="#D15187"/>
<path d="M17 24.6002L18.53 19.6602L3.73003 22.0002C3.19203 22.1004 2.71289 22.403 2.39111 22.8457C2.06934 23.2883 1.92939 23.8375 2.00003 24.3802L5.23003 45.6202C5.3186 46.1766 5.62404 46.6753 6.07947 47.007C6.53491 47.3388 7.10324 47.4765 7.66003 47.3902L28.9 44.1202C29.4583 44.0339 29.9595 43.7295 30.2933 43.2738C30.6271 42.8181 30.7662 42.2484 30.68 41.6902L29 30.5402L18.41 27.2602C18.1421 27.1791 17.8929 27.0458 17.6768 26.8679C17.4607 26.6901 17.282 26.4712 17.1509 26.2239C17.0198 25.9766 16.939 25.7058 16.9131 25.4271C16.8872 25.1484 16.9167 24.8674 17 24.6002Z" fill="#6F2CFF"/>
<path d="M25 18.67L18.57 19.67L17 24.6C16.9165 24.8666 16.8865 25.147 16.9117 25.4252C16.937 25.7034 17.017 25.9739 17.147 26.2211C17.2771 26.4682 17.4548 26.6873 17.6698 26.8656C17.8849 27.0439 18.133 27.1779 18.4 27.26L29 30.54L27.4 20.45C27.3135 19.8978 27.0135 19.4016 26.5645 19.0686C26.1155 18.7356 25.5536 18.5925 25 18.67Z" fill="#A445BB"/>
<path d="M32.48 20.4899C33.6674 20.4899 34.63 19.5274 34.63 18.3399C34.63 17.1525 33.6674 16.1899 32.48 16.1899C31.2926 16.1899 30.33 17.1525 30.33 18.3399C30.33 19.5274 31.2926 20.4899 32.48 20.4899Z" fill="white"/>
<path d="M28.24 12.4401C29.4274 12.4401 30.39 11.4775 30.39 10.2901C30.39 9.10272 29.4274 8.14014 28.24 8.14014C27.0526 8.14014 26.09 9.10272 26.09 10.2901C26.09 11.4775 27.0526 12.4401 28.24 12.4401Z" fill="white"/>
<path d="M40.53 16.26C41.7174 16.26 42.68 15.2974 42.68 14.11C42.68 12.9225 41.7174 11.96 40.53 11.96C39.3426 11.96 38.38 12.9225 38.38 14.11C38.38 15.2974 39.3426 16.26 40.53 16.26Z" fill="white"/>
<path d="M24.42 24.7302C25.6074 24.7302 26.57 23.7676 26.57 22.5802C26.57 21.3928 25.6074 20.4302 24.42 20.4302C23.2326 20.4302 22.27 21.3928 22.27 22.5802C22.27 23.7676 23.2326 24.7302 24.42 24.7302Z" fill="white"/>
<path d="M36.71 28.55C37.8974 28.55 38.86 27.5874 38.86 26.4C38.86 25.2126 37.8974 24.25 36.71 24.25C35.5226 24.25 34.56 25.2126 34.56 26.4C34.56 27.5874 35.5226 28.55 36.71 28.55Z" fill="white"/>
<path d="M16.39 35.3601C17.5774 35.3601 18.54 34.3975 18.54 33.2101C18.54 32.0226 17.5774 31.0601 16.39 31.0601C15.2026 31.0601 14.24 32.0226 14.24 33.2101C14.24 34.3975 15.2026 35.3601 16.39 35.3601Z" fill="white"/>
<path d="M9.04001 29.9802C10.2274 29.9802 11.19 29.0176 11.19 27.8302C11.19 26.6428 10.2274 25.6802 9.04001 25.6802C7.8526 25.6802 6.89001 26.6428 6.89001 27.8302C6.89001 29.0176 7.8526 29.9802 9.04001 29.9802Z" fill="white"/>
<path d="M23.73 40.7302C24.9174 40.7302 25.88 39.7676 25.88 38.5802C25.88 37.3928 24.9174 36.4302 23.73 36.4302C22.5426 36.4302 21.58 37.3928 21.58 38.5802C21.58 39.7676 22.5426 40.7302 23.73 40.7302Z" fill="white"/>
</svg>
